<?xml version="1.0" encoding="UTF-8"?>
<svg id="Layer_2" data-name="Layer 2" xmlns="http://www.w3.org/2000/svg" viewBox="0 0 484.53 309.24">
  <defs>
    <style>
      .cls-1 {
        fill: #e88d8e;
      }

      .cls-2 {
        fill: #fff;
      }

      .cls-3 {
        fill: #ffd447;
      }

      .cls-4 {
        fill: #ffb5be;
      }

      .cls-5 {
        fill: #ff6b66;
      }

      .cls-6 {
        fill: #a5a5db;
      }

      .cls-7 {
        fill: #e0ddfa;
      }

      .cls-8 {
        fill: #c8d400;
      }

      .cls-9 {
        fill: #24224b;
      }

      .cls-10 {
        fill: #1caec3;
      }

      .cls-11 {
        fill: #474495;
      }

      .cls-12 {
        fill: #353370;
      }

      .cls-13 {
        fill: #385b6b;
      }
    </style>
  </defs>
  <g id="Layer_1-2" data-name="Layer 1">
    <g id="Group_1982" data-name="Group 1982">
      <g id="Group_1938" data-name="Group 1938">
        <path id="Path_17471" data-name="Path 17471" class="cls-13" d="m413.68,214.25c-7.22,55.37-31.92,97.8-55.17,94.77s-36.25-50.37-29.03-105.74,31.92-97.8,55.17-94.77,36.25,50.37,29.03,105.74"/>
        <path id="Path_17472" data-name="Path 17472" class="cls-4" d="m306.55,198.86c-4.5,22.36-7.61,36.46-12.89,58.64-5,32.17-6.25,29.36-45.68,39.53-18.11,4.67-40.11-1.91-55.55-10.85.22-.51,1.45-3.4,2.51-5.88,1.74-4.97,1.58-3.05,5.14-2.45,26.64,7.37,67.5-11.19,67.71-14.83.05-.77.05-1.55.15-2.32,3.25-26.19,4.46-42.11,8.53-67.3l30.08,5.46Z"/>
        <path id="Path_17473" data-name="Path 17473" class="cls-3" d="m385.64,292.29c-.17,1.59-.37,3.03-.61,4.32-.37,2.27-1.02,4.49-1.94,6.6-.24.53-.51,1.04-.82,1.53-.04.06-.07.12-.11.18h-97.38c-.16-.06-.32-.12-.47-.18-1.05-.38-2.04-.9-2.96-1.53-2.28-1.64-2.88-3.8-1.21-6.6.3-.5.64-.98,1.01-1.44,3.21-4.28,5.49-9.19,6.68-14.4,3.52-13.5,3.13-30.98,1.66-46.01-.02-.2-.04-.4-.06-.6-.04-.35-.07-.71-.11-1.06-1.07-10.36-2.7-20.64-4.89-30.82.25-2.66,1.59-5.11,3.7-6.75,6.69-5.62,21.5-7.24,37.56-6.41,2.83.15,5.7.37,8.57.66l.97.1c4.28.45,8.54,1.06,12.68,1.78,8.43,1.37,16.71,3.53,24.74,6.45,6.25,2.42,10.54,5.1,11.61,7.74,4.42,10.94-.7,5.44-.49,31.15.05,6.5.45,15,1.43,26.26,0,.07.01.14.02.21.01.15.02.3.04.45,1.09,12.71,1.07,21.84.39,28.37"/>
        <path id="Path_17474" data-name="Path 17474" class="cls-4" d="m332.58,297.68l-49.76.9c-1.16,0-2.1-.93-2.11-2.09,0-.47.15-.93.44-1.3,4.74-6.1,22.16-18.35,38.26-9.08,4.29,2.59,8.15,5.84,11.45,9.61.57.63,1.14,1.28,1.71,1.96"/>
        <path id="Path_17475" data-name="Path 17475" class="cls-1" d="m287.46,295.5c-.46,0-.83-.37-.83-.83,0-.19.06-.37.18-.52,3.52-3.9,8.08-6.69,13.15-8.06.44-.13.9.13,1.03.57s-.13.9-.57,1.03c-4.73,1.3-8.99,3.9-12.31,7.51-.16.2-.4.31-.65.31"/>
        <path id="Path_17476" data-name="Path 17476" class="cls-1" d="m292.57,295.5c-.46,0-.83-.37-.83-.83,0-.26.12-.5.32-.66.17-.13,4.26-3.31,7.27-4.14.44-.14.91.1,1.05.53.14.44-.1.91-.53,1.05-.02,0-.05.01-.07.02-2.69.74-6.65,3.82-6.69,3.85-.15.11-.33.18-.51.18"/>
        <path id="Path_17477" data-name="Path 17477" class="cls-4" d="m389.95,290.83c-18.03,6.73-41.17,7.16-65.69,6.85-2.39-.03-4.67-.95-6.94-1.59,0-.04.02-.09.03-.16.13-.8.55-3.39.95-5.77.71-2.97.13-3.89,1.12-4.05.64-.05,1.29-.03,1.92.06,50.06-14.26,65.65-19.84,63.49-22.65-9.08-28.44-9.62-50.64-13.81-76.44l28.68-3.86c1.32,13.59,2.28,25.24,3.67,35.17,8.69,62.08,14.32,62.72-13.43,72.43"/>
        <path id="Path_17478" data-name="Path 17478" class="cls-4" d="m356.96,143.68l-.1,1.32c-.44,6.07,1.04,15.28,2.53,21.18l.38,18.41c-.2,4.66-7.93,6.14-17.32,8.36-.43.07-.87.09-1.31.05-5.57-.1-15.67,1.6-15.45-3.46l-.06-21.06,5.37-25.95c.22-5.06,7.35-6.24,12.92-6.14s13.25,2.22,13.03,7.29"/>
        <path id="Path_17479" data-name="Path 17479" class="cls-3" d="m405.3,231.07c-.41.41-3.76,1.62-8.02,2.86-7.5,2.19-17.78,4.48-19.62,2.64-2.84-2.84-87.84-2.38-90.59-2.41-.04,0-2.56.04-2.61.03-.82-.07-6.31-.77-10.08-1.02-1.02-.07-5.8-1.28-5.77-2.31.19-6.93,4.39-44.82,17.82-53.25,1.23-.77,2.54-1.4,3.91-1.86,17.01-5.78,29.76-9.29,34.63-10.22.69-.13,1.4.13,1.84.68.85,1.07,6.56,7.22,11.11,8.14,6.19,1.24,14.04-3.4,20.18-8.38.4-.33.93-.48,1.44-.41,5.89.76,35.59,6.08,40.15,17.66,4.98,12.63,6.73,46.72,5.6,47.84"/>
        <path id="Path_17480" data-name="Path 17480" class="cls-1" d="m277.12,265.39c-.11,0-.22-.02-.32-.06-2.54-.98-5.23-1.47-7.95-1.46h-.02c-.46,0-.84-.36-.84-.82s.36-.84.82-.84c2.96-.03,5.89.51,8.65,1.59.42.17.63.66.45,1.08-.13.31-.44.52-.78.52"/>
        <path id="Path_17481" data-name="Path 17481" class="cls-1" d="m394.73,265.39c-.14,0-.28-.03-.4-.1-2.55-1.4-8.22-.94-8.28-.94-.46.03-.85-.31-.89-.77-.03-.45.3-.84.75-.88.25-.02,6.23-.5,9.22,1.13.4.22.55.73.33,1.13-.15.27-.43.43-.73.43"/>
        <path id="Path_17482" data-name="Path 17482" class="cls-2" d="m377.03,236.63c-.24,0-.46-.1-.62-.28-.56-.63-1.39-2.27-2.08-9.17-.37-3.69-.52-7.18-.52-7.22-.02-.46.34-.85.8-.87s.85.34.87.8h0s.15,3.48.51,7.13c.67,6.63,1.45,7.97,1.67,8.22.31.34.28.87-.07,1.17-.15.14-.35.21-.55.21"/>
        <path id="Path_17483" data-name="Path 17483" class="cls-9" d="m334.02,74.17s47.46-19.23,50.36,20.48c3,41.16-50.36-20.48-50.36-20.48"/>
        <path id="Path_17484" data-name="Path 17484" class="cls-5" d="m331.65,119.21c-.45,7.44-5.52,13.19-11.33,12.84s-10.16-6.67-9.72-14.11,5.52-13.19,11.33-12.84,10.16,6.67,9.72,14.11"/>
        <path id="Path_17485" data-name="Path 17485" class="cls-9" d="m321.55,84.91s-14.75,14.48-1.84,40.26c8.29,16.56,58.97,28.52,63.55-19.76,3.13-32.94-61.71-20.49-61.71-20.49"/>
        <path id="Path_17486" data-name="Path 17486" class="cls-4" d="m338.54,89.56c-7.35-3.09-15.81.36-18.91,7.71-.34.81-.6,1.64-.79,2.49-2.96,13.3-5.69,42.11,3.43,49.35,11.56,9.19,39.95,1.84,46.59-12.34,4.74-10.12-13.74-40.14-30.32-47.22"/>
        <path id="Path_17487" data-name="Path 17487" class="cls-2" d="m347.7,145.17c-.46,0-.9,0-1.32-.02-3.25-.02-6.47-.5-9.58-1.44-.43-.15-.66-.63-.51-1.06.15-.43.63-.66,1.06-.51,2.97.87,6.05,1.32,9.15,1.34,8.11.1,16.14-1.56,23.54-4.87.42-.18.91.03,1.09.45.17.42-.02.89-.43,1.08-7.25,3.22-15.08,4.93-23.01,5.02"/>
        <path id="Path_17488" data-name="Path 17488" class="cls-9" d="m337.9,80.65s-2.43,25.19,32.46,33.56c19.89,4.77-15.65-55.23-32.46-33.56"/>
        <path id="Path_17489" data-name="Path 17489" class="cls-2" d="m380.95,127.93c-1.03,6.62-5.49,11.61-10.54,12.33-.87.12-1.75.12-2.61-.02-6.05-.94-9.98-7.99-8.76-15.74s7.1-13.26,13.15-12.32c.52.08,1.02.21,1.52.38,5.17,1.79,8.35,8.28,7.25,15.36"/>
        <path id="Path_17490" data-name="Path 17490" class="cls-5" d="m380.95,127.93c-1.03,6.62-5.49,11.61-10.54,12.33-5.17-1.79-8.35-8.28-7.25-15.36,1.03-6.62,5.49-11.61,10.54-12.33,5.17,1.79,8.35,8.28,7.25,15.36"/>
        <path id="Path_17491" data-name="Path 17491" class="cls-5" d="m338.98,143.54c-.19,1.33-1.83,2.2-3.66,1.93s-3.15-1.56-2.96-2.9,1.83-2.2,3.66-1.93,3.15,1.56,2.96,2.9"/>
        <path id="Path_17492" data-name="Path 17492" class="cls-5" d="m372.95,118.6c-.92,0-1.66-.75-1.66-1.66,0-.18.03-.36.09-.53,1.15-3.83,1.86-7.77,2.12-11.76.38-5.95-.23-14.38-5.25-20.72-6.08-7.68-17.29-10.85-33.33-9.42-.91.08-1.72-.59-1.81-1.51-.08-.91.59-1.72,1.51-1.81,17.23-1.54,29.43,2.05,36.24,10.68,2.61,3.39,4.41,7.34,5.23,11.54.76,3.79,1,7.67.71,11.53-.27,4.24-1.03,8.44-2.28,12.51-.23.68-.86,1.14-1.58,1.14"/>
        <path id="Path_17493" data-name="Path 17493" class="cls-1" d="m337.94,153.95c-1.68,0-3.36-.14-5.03-.42-2.59-.4-5.12-1.18-7.48-2.31-.37-.2-.52-.66-.32-1.04.2-.37.66-.52,1.04-.32,2.24,1.06,4.63,1.79,7.08,2.16,5.6.94,11.35.18,16.51-2.18.39-.18.84,0,1.02.38.18.39,0,.84-.38,1.02h0c-3.9,1.79-8.14,2.71-12.43,2.71"/>
        <path id="Path_17494" data-name="Path 17494" class="cls-12" d="m327.47,111.03c-.25,0-.5-.1-.68-.28-1.71-1.79-4.3-2.44-6.66-1.68-1.19.38-2.3.98-3.27,1.78-.39.36-1.01.34-1.37-.05-.05-.05-.09-.11-.13-.17-.36-.56-.28-1.29.19-1.75,1.16-.99,2.5-1.73,3.95-2.2,3.04-1,6.39-.18,8.62,2.12.46.47.53,1.21.16,1.76-.18.28-.49.46-.82.46"/>
        <path id="Path_17495" data-name="Path 17495" class="cls-12" d="m340.16,112.01c.25.04.5-.03.7-.18,1.92-1.54,4.57-1.83,6.78-.73,1.15.54,2.19,1.3,3.06,2.23.33.41.94.48,1.36.14.06-.05.11-.1.16-.16.41-.52.41-1.25,0-1.76-1.05-1.14-2.3-2.07-3.7-2.74-2.85-1.43-6.27-1.08-8.77.9-.51.42-.65,1.14-.34,1.72.15.3.44.52.77.58"/>
        <path id="Path_17496" data-name="Path 17496" class="cls-9" d="m324.78,118.55c-.07,1.57-1.07,2.77-2.24,2.67s-2.05-1.44-1.98-3.02,1.07-2.77,2.24-2.67,2.05,1.44,1.98,3.02"/>
        <path id="Path_17497" data-name="Path 17497" class="cls-9" d="m341.14,119.98c-.07,1.57.82,2.92,1.98,3.02s2.17-1.1,2.24-2.67-.82-2.92-1.98-3.02-2.17,1.1-2.24,2.67"/>
        <path id="Path_17498" data-name="Path 17498" class="cls-1" d="m332.64,130.37c-1.03-.03-2.03-.37-2.86-.97-.88-.67-1.47-1.66-1.65-2.75-.05-.4.24-.77.64-.82.4-.05.77.24.82.64.13.71.52,1.34,1.1,1.77,1.14.69,2.5.89,3.79.56.4-.07.78.2.85.61.07.4-.2.78-.61.85h0c-.68.12-1.38.16-2.07.13"/>
        <path id="Path_17499" data-name="Path 17499" class="cls-1" d="m326.43,134.67c.21.01.42.11.57.26,1.54,1.81,3.97,2.6,6.28,2.04,1.13-.28,2.19-.78,3.12-1.47.37-.3.91-.24,1.21.12.3.37.24.91-.12,1.2h0c-1.11.85-2.39,1.46-3.75,1.8-2.92.74-6-.23-7.98-2.5-.33-.34-.32-.88.02-1.21.17-.17.41-.25.65-.24"/>
        <path id="Path_17500" data-name="Path 17500" class="cls-9" d="m350.95,75.05c2.55,5.57-3.34,13.74-13.16,18.24s-21.77,5.61-24.33.04,8.36-18.55,18.18-23.06,16.76-.79,19.31,4.78"/>
        <path id="Path_17501" data-name="Path 17501" class="cls-12" d="m358.82,103.65c-.06,0-.11,0-.17-.02-3.19-.77-6.25-3.1-8.84-6.74-1.18-1.64-2.18-3.41-2.97-5.27-.15-.37.03-.79.4-.94.37-.15.79.03.94.4.04.09,3.89,9.47,10.82,11.15.39.1.62.49.53.87-.08.32-.37.55-.7.55"/>
        <path id="Path_17502" data-name="Path 17502" class="cls-12" d="m319.98,87.53c-.4,0-.72-.32-.72-.72,0-.11.02-.21.07-.31,2.14-4.07,5.37-7.46,9.34-9.78,1.89-1.18,3.91-2.16,6.02-2.9.38-.11.78.12.89.5.1.36-.09.74-.45.87-.1.03-10.41,3.46-14.5,11.93-.12.25-.37.41-.65.41"/>
        <path id="Path_17503" data-name="Path 17503" class="cls-2" d="m291.06,234.76h-2.41c-.46,0-.83-.37-.83-.83s.37-.83.83-.83h2.41c.71,0,1.3-.53,1.38-1.24l1.6-14.9c.05-.46.46-.79.92-.74s.79.46.74.92l-1.6,14.9c-.16,1.55-1.47,2.72-3.03,2.72"/>
        <path id="Path_17504" data-name="Path 17504" class="cls-2" d="m252.87,296.85h-101.07c-1.78,0-3.35-1.18-3.83-2.9l-19.68-69.5c-.6-2.12.63-4.32,2.75-4.92.35-.1.72-.15,1.08-.15h101.07c1.78,0,3.35,1.18,3.83,2.9l19.68,69.5c.6,2.12-.63,4.32-2.75,4.92-.35.1-.72.15-1.08.15"/>
        <path id="Path_17505" data-name="Path 17505" class="cls-7" d="m248.75,300.97h-101.07c-1.78,0-3.35-1.18-3.83-2.9l-19.68-69.5c-.6-2.12.63-4.32,2.75-4.92.35-.1.72-.15,1.08-.15h101.07c1.78,0,3.35,1.18,3.83,2.9l19.68,69.5c.6,2.12-.63,4.32-2.75,4.92-.35.1-.72.15-1.08.15"/>
        <path id="Path_17506" data-name="Path 17506" class="cls-7" d="m326.26,300.98h-85.31v-6.16h85.31c1.15,0,2.09.93,2.09,2.09v1.99c0,1.15-.93,2.09-2.09,2.09"/>
        <path id="Path_17507" data-name="Path 17507" class="cls-2" d="m186.74,265.17c1.35,4.89-.72,9.73-4.64,10.82s-8.19-2-9.55-6.89.72-9.73,4.64-10.82,8.19,2,9.55,6.89"/>
        <path id="Path_17508" data-name="Path 17508" class="cls-2" d="m279.89,295.38h-26.72c-.42-.02-.75-.37-.74-.79.01-.4.34-.72.74-.74h26.72c.42.02.75.37.74.79-.01.4-.34.72-.74.74"/>
        <path id="Path_17509" data-name="Path 17509" class="cls-6" d="m144.2,298.02c-.34,0-.64-.23-.74-.56l-18.35-64.8c-.12-.41.12-.83.53-.95.41-.11.83.12.94.53l18.35,64.8c.11.41-.12.83-.53.95-.07.02-.14.03-.21.03"/>
        <path id="Path_17510" data-name="Path 17510" class="cls-6" d="m243.55,301.03h-92.81c-.42-.02-.75-.37-.74-.79.01-.4.34-.72.74-.74h92.81c.42-.02.78.32.79.74.02.42-.32.78-.74.79-.02,0-.04,0-.06,0"/>
        <path id="Path_17511" data-name="Path 17511" class="cls-13" d="m88.72,256.56c-.45-.01-.81-.37-.84-.81-1.62-16.07-4.27-32.02-7.92-47.75-3.38-14.13-7.33-25.74-11.74-34.5-5.43-10.8-11.55-17.23-18.19-19.11-.46-.15-.73-.63-.6-1.1.09-.45.54-.74.99-.65.01,0,.02,0,.04,0,7.1,2.02,13.58,8.75,19.24,20.01,4.47,8.89,8.47,20.64,11.89,34.92,3.67,15.82,6.33,31.85,7.96,48.01.06.48-.28.91-.76.98-.03,0-.05,0-.08,0"/>
        <path id="Path_17512" data-name="Path 17512" class="cls-13" d="m97.8,256.56c-.06,0-.13,0-.19-.02-.47-.13-.75-.6-.64-1.07.83-3.61,2.08-7.1,3.73-10.42,3.53-6.97,8.17-10.66,13.43-10.66.5,0,.9.4.9.9s-.4.9-.9.9c-11.24,0-15.47,19.48-15.51,19.67-.07.4-.42.69-.82.7"/>
        <path id="Path_17513" data-name="Path 17513" class="cls-13" d="m93.08,257.87c-.42-.01-.78-.33-.83-.75-1.58-11.96-1.95-24.04-1.08-36.07.62-10.21,2.68-20.28,6.1-29.91,4-10.67,9.82-18.88,17.29-24.38.36-.27.86-.19,1.13.17.01.02.03.04.04.06.26.41.17.95-.22,1.25-16.33,12.04-21.33,35.44-22.66,52.95-.85,11.88-.49,23.82,1.07,35.63.08.47-.22.93-.69,1.04-.05,0-.09.01-.14.01"/>
        <path id="Path_17514" data-name="Path 17514" class="cls-13" d="m95.29,257.87c-.42-.01-.77-.33-.83-.75-.04-.27-4.38-27.62-6.53-57.98-1.23-15.22-1.5-30.49-.82-45.74.91-15.74,3.43-26.98,7.48-33.41.23-.38.72-.51,1.11-.28.02.01.04.03.06.04.39.29.49.84.23,1.25-3.88,6.16-6.3,17.09-7.19,32.51-.68,15.17-.41,30.37.81,45.5,2.15,30.28,6.47,57.54,6.51,57.81.09.47-.22.93-.69,1.04-.05,0-.09.01-.14.01"/>
        <path id="Path_17515" data-name="Path 17515" class="cls-10" d="m163.56,170.23c-3.49-3.73-13.48,0-19.75,1.01-.67.11-1.29.24-1.87.38-4.87,1.17-6.52,2.98-2.5-2.78.48-.67,1.13-1.22,1.87-1.58,6.35-3.29,21.43,1.73,19.4-3.21-.09-.23-.21-.44-.33-.65-4.02-6.71-19.76-12.41-32.17-10-9.52,1.84-12.93,9.94-14,13.61h0c-.02.08-.05.16-.07.23-.19.79-.95,1.32-1.76,1.23h0s-.1-.01-.15-.03c-13.89-3.19-20.83,5.12-23.63,11.08h0s-.04.08-.06.12h0c-.05.1-.1.21-.14.31h0c-.54,1.18-.96,2.42-1.24,3.69-.03.14-.05.29-.07.45h0c-.08.76-.09,1.51-.01,2.26h0c.04.47.1.97.18,1.49h0c.2,1.2.47,2.38.81,3.54h0c.36,1.22.79,2.42,1.28,3.6h0c1.3,3.11,3,5.82,4.7,6.84.1.06.21.12.32.17.41.21.84.35,1.29.44h0c2.66.43,2.85-3.52,8.76-11.95,6.74-9.61,7.1-3.81,7.1-2.04s-4.26,5.7-7.63,7.85-5.27,7.09-3.61,10.76c1.2,2.66,6.12,3.92,8.74,4.42.89.14,1.73-.47,1.87-1.36,0-.03,0-.05.01-.08,2.05-13.83,9.89-17.95,10.96-16.34,2.5,3.76-.26,3.17-3.34,10.01-1.21,2.56-2.26,5.2-3.15,7.89-.3.95,2.4,1.97,3.31,2.24l9.27,2.69c.79.21,1.62-.21,1.91-.98,1.69-4.07,5.61-8.57,4.09-4.94-.91,2.38-1.26,4.95-1.02,7.49.04.57.36,1.08.85,1.37,5.76,3.24,4.86,9.47,5.66,8.61.83-.89,6.5-10.13,7.45-11.14s.71-3.42-1.42-5.19-2.19-2.85-.53-4.62,4.32,4.62,5.5,4.62c.34,0,1.04-.7,1.86-1.77,2.06-2.67,4.86-7.6,4.52-9.5-.38-2.14-4.66-2.72-7.86-2.87-.78-.04-1.49-.05-2.07-.05-2.96,0-7.39-1.08-4.14-4.56,1.02-1.09,2.85-.95,4.9-.24,4.49,1.55,10.1,5.81,10.83,5.81.8,0,2.6-5.99,3.44-8.98.28-.9-.21-1.86-1.1-2.17-3.14-.99-10.36-3.03-15.3-2.54-1.08.07-2.13.36-3.09.85-5.38,2.99-6.43-6.88,1.38-4.13.3.1.6.21.91.3,6.2,1.97,14.48,2.54,17.59,2.69.77.02,1.45-.51,1.63-1.26.8-2.97,2.36-10.19-.38-13.12m-61.61,14.54h0c-.75.43-1.56.74-2.4.94-.62.14-1.25.21-1.89.21-.31,0-.63-.02-.94-.05-.91-.1-1.53.22-1.42-.75.35-3.01,5.07-8.2,8.75-7.55.05,0,.1.02.15.03.61.09,1.13.46,1.43,1,.8,1.6-.8,4.56-3.67,6.18m27.07-18.48c-3.61.28-3.9-.81-3.66-1.6.13-.43.43-.79.83-.99,1.71-.87,8.22-3.99,11.5-3.17,3.8.95-3.11,5.33-8.67,5.76"/>
        <path id="Path_17516" data-name="Path 17516" class="cls-13" d="m107.73,238.02s-12.97-.18-6.98-8.36,13.96-12.36,25.27-7.29,11.64,7.29,13.96,12.36c-5.41-.78-10.84,1.39-14.21,5.69-5.98,7.38-20.2,10.85-18.03-2.4"/>
        <path id="Path_17517" data-name="Path 17517" class="cls-13" d="m124.21,134.87c-.97-5-7.71-21.15-26.41-16.68-.92.19-1.81-.4-2.01-1.32-1.04-3.9-4.57-13.12-14.81-15.19-13.08-2.64-29.65,3.61-33.88,10.97s17.32-1.11,22.05,5.97,1.99,3.75-4.61,2.64-17.13-5.21-20.8-1.11c-2.88,3.22-1.24,11.14-.4,14.39.17.81.89,1.39,1.72,1.38,3.44-.17,12.87-.85,19.48-3.28,8.22-3.02,7.12,7.81,1.45,4.53-4.53-2.62-15.27.5-19.37,1.85-.95.37-1.45,1.41-1.15,2.38.89,3.28,2.79,9.85,3.63,9.85,1.12,0,13.14-9.93,16.57-6.11s-1.24,5-4.36,5c-2.91,0-9.09.24-10.29,2.66h0c-.05.1-.09.21-.13.32-.02.07-.04.14-.05.22-.05.44-.02.89.08,1.31h0c.8,3.75,5.55,11.04,6.64,11.04.71,0,1.92-2.26,3.15-3.86h0c.34-.47.74-.89,1.2-1.25h0c.38-.39.99-.39,1.38-.02.02.02.04.04.06.07,1.09,1.22,1.47,2.14,1.06,3.13-.14.31-.32.6-.54.85-.17.21-.35.41-.55.59-.16.16-.35.32-.54.49-.84.7-1.47,1.62-1.82,2.65h0c-.42,1-.3,2.15.33,3.04,1,1.11,6.97,11.24,7.84,12.22.53.59.36-1.85,1.63-4.64.29-.64.65-1.26,1.06-1.83h0c.87-1.21,1.98-2.23,3.27-2.97.52-.33.86-.88.89-1.5.11-1.32.09-2.65-.05-3.97h0c-.09-.84-.24-1.68-.45-2.5-.15-.59-.34-1.17-.57-1.74-1.16-2.88.68-1.09,2.46,1.81h0c.42.69.84,1.44,1.21,2.21.23.46.44.93.62,1.4.28.83,1.16,1.3,2.01,1.07l4.11-1.24,1.38-.42h0l1.68-.51h0l2.59-.78c.95-.29,3.8-1.41,3.48-2.45-.94-2.95-2.05-5.83-3.32-8.65-.64-1.51-1.41-2.96-2.31-4.33h0c-.61-.94-1.14-1.64-1.53-2.23h0c-.91-1.4-1.05-2.25.33-4.4.02-.03.04-.06.07-.09h0c.3-.33.9-.37,1.7-.08,2.86,1.06,8.12,6.43,9.78,18.08.08.96.92,1.67,1.88,1.59.04,0,.07,0,.11-.01,2.76-.54,7.94-1.93,9.21-4.84,1.74-4.03-.26-9.44-3.8-11.8s-8.03-6.67-8.03-8.61.37-8.3,7.48,2.24,6.36,14.7,10.59,12.62,8.59-15,7.6-20.13m-53.24-25.38c3.45-.9,10.3,2.52,12.11,3.48.43.23.74.62.88,1.08.25.87-.05,2.06-3.86,1.76-5.86-.47-13.13-5.28-9.13-6.32m43.14,27.79c-7.49.85-12.48-8.24-7.71-9.11,3.87-.71,8.85,4.98,9.21,8.28.12,1.06-.54.72-1.5.83"/>
        <path id="Path_17518" data-name="Path 17518" class="cls-10" d="m52.32,153.18c26.92-9.82,35.33,13.76,31.31,12.47-6.06,1.68-18.63-.54-23.04-1.86-8.47,5.59,9.93,6.13,15.41,4.88,4.45-.4,7.78-.6,8.99.42,1.18,1.67,5.11,12.68,2.87,10.64-16.57-11.01-13.91,1.46-9.82,2.3,3.83,1.77,12.38,4.13,10.4,8.3-4.92,13.97-7.8,11.19-14.87,4.24-10.6-24.41-18.05-14.36-16.95-10.96,6.04.06,16.38,14.87,22.88,19.73,2.43,1.82-1.26,4.87-5.03,8.44-5.72,9.16-20.37-43.16-26.65-17.63,4.64,10.18,24.06,22.23,15.13,26.86-20.97,10.52-6.54-9.59-21.71-20.86-7.7-3.63,9.44,23.81,7.37,24.97-15.45,8.77-6.68-4.81-13.68-12.28-9.74,1.85,2.9,10.92.29,14.59-.45.48-4.36,2.17-8.24,5.1-11.26,14.21-11.12-2.34-11.35-7.31,1.72-2.15,9.07-11.09,3.04-7.97-2.51,1.75-4.48,5.79-4.95,5.68-1.23-1.45-4.54-7.35-2.7-9.31,3.53-6.59,15.57-4.53,14.76-11.77-12.46-2.4-16.44,21.18-20.69.37,12.75-13.94,20.82-10.72,20.52-13-5.35-8.1-24.69,12.7-24.02,8.85-2.46-3.25-1.97-12.75.64-14.19,6.57-7.39,48.38-12.39,20.6-16.68-7.77-1.61-28.04,24.44-16-5.19,3.37-6.16,21.97-.24,28.85-2.96,1.64-.78,1.88-.91,1.7-3.23-.9-13.44-21.38,2.51-23.97-.24,26.98-29.57,33.64-.05,38.91-2.4"/>
        <path id="Path_17519" data-name="Path 17519" class="cls-13" d="m115.2,259.04c0-4.69-14.19-4.36-25-4.36-9.3,0-25-.33-25,4.36,0,.68.13,1.35.37,1.99l6.14,35.75c0,4.79,8.28,6.32,18.49,6.32s18.5-1.53,18.5-6.32l6.14-35.75c.24-.64.36-1.31.37-1.99"/>
        <path id="Path_17520" data-name="Path 17520" class="cls-13" d="m260.06,120.76v-25.38c0-6.13-4.97-11.11-11.11-11.11h-57.11c-6.13,0-11.11,4.97-11.11,11.11h0v25.38c0,6.13,4.97,11.11,11.11,11.11h57.11l17.43,8.02c1.02.47,2.23.02,2.7-1,.27-.59.25-1.27-.07-1.83l-8.96-16.29Z"/>
        <path id="Path_17521" data-name="Path 17521" class="cls-2" d="m194.7,98.69c-.42,0-.76-.34-.77-.76h0c0-.42.34-.76.76-.77l52.06-.16h0c.42,0,.76.34.77.76h0c0,.42-.34.76-.76.77l-52.06.16h0Z"/>
        <path id="Path_17522" data-name="Path 17522" class="cls-2" d="m194.7,109.41c-.42,0-.76-.34-.77-.76h0c0-.42.34-.76.76-.77l52.06-.16h0c.42,0,.76.34.77.76h0c0,.42-.34.76-.76.77l-52.06.16h0Z"/>
        <path id="Path_17523" data-name="Path 17523" class="cls-2" d="m194.77,119.63c-.42,0-.76-.34-.77-.76h0c0-.42.34-.76.76-.77l29.58-.09c.42,0,.77.34.77.76h0c0,.42-.34.77-.76.77l-29.58.09h0Z"/>
        <path id="Path_17524" data-name="Path 17524" class="cls-10" d="m460.27,82.61h-48.43c-3.06,0-5.54-2.48-5.54-5.54v-24.18c0-3.06,2.48-5.54,5.54-5.54h48.43c3.06,0,5.54,2.48,5.54,5.54v24.18c0,3.06-2.48,5.54-5.54,5.54"/>
        <path id="Path_17525" data-name="Path 17525" class="cls-2" d="m436.36,70.42c-.54,0-1.06-.18-1.48-.51l-23.18-17.92c-.38-.3-.45-.85-.16-1.23s.85-.45,1.23-.16h0l23.18,17.92c.24.19.58.19.82,0l22.57-17.91c.38-.3.93-.24,1.23.14.3.38.24.93-.14,1.23l-22.57,17.91c-.43.34-.96.52-1.5.53"/>
        <path id="Path_17526" data-name="Path 17526" class="cls-2" d="m459.88,79.55c-.2,0-.39-.07-.54-.19l-17.23-13.53c-.38-.3-.44-.85-.13-1.23.3-.37.84-.43,1.21-.15l17.23,13.53c.38.3.45.85.15,1.23-.17.21-.42.33-.69.33"/>
        <path id="Path_17527" data-name="Path 17527" class="cls-2" d="m412.36,79.67c-.48,0-.88-.39-.88-.87,0-.27.12-.53.34-.69l17.57-13.65c.38-.3.93-.23,1.23.15.3.38.23.93-.15,1.23l-17.57,13.65c-.15.12-.34.18-.54.18"/>
        <path id="Path_17528" data-name="Path 17528" class="cls-3" d="m283.01,24.75c0,13.67-11.08,24.76-24.75,24.76-13.67,0-24.76-11.08-24.76-24.75,0-13.67,11.08-24.76,24.75-24.76h0c13.67,0,24.75,11.08,24.75,24.75"/>
        <path id="Path_17529" data-name="Path 17529" class="cls-2" d="m254.59,7.5c2.04-.54,4.21-.03,5.81,1.36h0c.51.45.69,1.17.44,1.8l-3.28,8.4c-.25.64-.87,1.05-1.55,1.04-.54-.02-1.08-.1-1.6-.25-.46,4.11.62,8.24,3.03,11.59.38-.39.8-.72,1.27-1,.56-.33,1.27-.28,1.77.13l7.07,5.8c.5.41.7,1.09.48,1.7h0c-1.2,3.34-4.86,5.06-8.19,3.86-.11-.04-.22-.08-.33-.13-.59-.33-1.16-.69-1.71-1.07-9.41-6.49-12.65-18.89-7.62-29.15.3-.61.62-1.2.97-1.77.86-1.12,2.08-1.93,3.45-2.28"/>
        <path id="Path_17530" data-name="Path 17530" class="cls-5" d="m226.81,166.17c-13.31,0-24.1,9.11-24.1,20.34,0,1.89.31,3.78.92,5.57.38,1.13.38,2.35,0,3.47l-2.28,6.56-2.93,8.49c-.02.06.01.13.07.15.02,0,.05,0,.07,0l10.2-3.17,6.47-2.01c1.05-.32,2.17-.31,3.21.02,2.71.84,5.54,1.27,8.38,1.26,13.31,0,24.1-9.11,24.1-20.34s-10.79-20.34-24.1-20.34"/>
        <path id="Path_17531" data-name="Path 17531" class="cls-2" d="m220.59,186.94c0,1.6-1.29,2.89-2.89,2.89-1.6,0-2.89-1.29-2.89-2.89,0-1.6,1.29-2.89,2.89-2.89h0c1.6,0,2.89,1.29,2.89,2.89"/>
        <path id="Path_17532" data-name="Path 17532" class="cls-2" d="m229.75,186.94c0,1.6-1.29,2.89-2.89,2.89-1.6,0-2.89-1.29-2.89-2.89,0-1.6,1.29-2.89,2.89-2.89h0c1.6,0,2.89,1.29,2.89,2.89"/>
        <path id="Path_17533" data-name="Path 17533" class="cls-2" d="m239.29,186.94c0,1.6-1.29,2.89-2.89,2.89-1.6,0-2.89-1.29-2.89-2.89s1.29-2.89,2.89-2.89,2.89,1.29,2.89,2.89h0"/>
        <path id="Path_17534" data-name="Path 17534" class="cls-10" d="m419.96,266.75v33.02c0,1.07.87,1.95,1.94,1.95h25.26c1.07,0,1.95-.87,1.95-1.94h0v-5.45c6.06-.11,10.87-5.12,10.76-11.17-.11-5.9-4.86-10.65-10.76-10.76v-5.64c0-1.07-.87-1.95-1.94-1.95h-25.26c-1.07,0-1.95.87-1.95,1.94h0m29.15,23.61v-14.02c3.87.11,6.92,3.34,6.8,7.21-.11,3.71-3.09,6.7-6.8,6.8"/>
        <path id="Path_17535" data-name="Path 17535" class="cls-11" d="m434.75,261.21c.57,0,1.04-.47,1.04-1.04,0-.27-.1-.53-.29-.72l-.67-.7c-1.16-1.08-1.22-2.9-.14-4.06,0-.01.02-.02.03-.03l.81-.92s.06-.07.08-.11l.58-.86c1.26-1.79,1.35-4.15.25-6.04l-.79-1.37c-.28-.5-.91-.69-1.41-.41s-.69.91-.41,1.41c0,.01.01.02.02.03l.79,1.37c.71,1.2.65,2.7-.17,3.84l-.54.81-.76.86c-1.82,1.97-1.75,5.03.16,6.91l.67.7c.2.21.47.32.75.32"/>
        <path id="Path_17536" data-name="Path 17536" class="cls-8" d="m484.53,305.09c0,2.29-2.99,4.15-6.68,4.15H46.33c-3.69,0-6.68-1.86-6.68-4.15.09-1.25.84-2.37,1.95-2.94,1.43-.83,3.07-1.25,4.72-1.22h431.53c3.69,0,6.68,1.86,6.68,4.15"/>
      </g>
    </g>
  </g>
</svg>